# xmcd
# Copyright (C) 1995-1998 Ti Kan
#
# Track frame offsets:
#       150
#       15936
#       30489
#
# Disc length: 582 seconds
#
# Revision: 0
# Processed by: cddbd v1.5.2PL0 Copyright (c) Steve Scherf et al.
# Submitted via: CD-Transfer v1.0
#
DISCID=11024403
DTITLE=Hechtholz - 
DYEAR=07
DGENRE=
TTITLE0=Mitten Im Paradies
TTITLE1=Sieben Tage Sieben Nächte (Neu)
TTITLE2=Links Und Rechts Vom Inn
EXTD=
EXTT0=
EXTT1=
EXTT2=
PLAYORDER=
